# xmcd
#
# Track frame offsets: 
#        150
#        19289
#        39760
#        58645
#        77171
#        99287
#
# Disc length: 1576 seconds
#
# Revision: 0
# Processed by: cddbd v1.5.2PL0 Copyright (c) Steve Scherf et al.
# Submitted via: ExactAudioCopyFreeDBPlugin 1.0
#
DISCID=3c062606
DTITLE=Twilight Set - Desert Song
DYEAR=2012
DGENRE=Alternative
TTITLE0=Desert Song
TTITLE1=Stranger
TTITLE2=Jack
TTITLE3=Hard Rain
TTITLE4=To Sea
TTITLE5=Midnight Bus
EXTD=
EXTT0=
EXTT1=
EXTT2=
EXTT3=
EXTT4=
EXTT5=
PLAYORDER=
